<?xml version="1.0" encoding="UTF-8" standalone="no"?> <!-- Created with Vectornator for iOS (http://vectornator.io/) --><!DOCTYPE svg PUBLIC "-//W3C//DTD SVG 1.1//EN" "http://www.w3.org/Graphics/SVG/1.1/DTD/svg11.dtd">
<svg height="100%" style="fill-rule:nonzero;clip-rule:evenodd;stroke-linecap:round;stroke-linejoin:round;" xmlns:xlink="http://www.w3.org/1999/xlink" xmlns="http://www.w3.org/2000/svg" xml:space="preserve" width="100%" xmlns:vectornator="http://vectornator.io" version="1.1" viewBox="0 0 400 400">
<metadata>
<vectornator:setting key="DimensionsVisible" value="1"/>
<vectornator:setting key="PencilOnly" value="0"/>
<vectornator:setting key="SnapToPoints" value="0"/>
<vectornator:setting key="OutlineMode" value="0"/>
<vectornator:setting key="CMYKEnabledKey" value="0"/>
<vectornator:setting key="RulersVisible" value="1"/>
<vectornator:setting key="SnapToEdges" value="0"/>
<vectornator:setting key="GuidesVisible" value="1"/>
<vectornator:setting key="DisplayWhiteBackground" value="0"/>
<vectornator:setting key="doHistoryDisabled" value="0"/>
<vectornator:setting key="SnapToGuides" value="1"/>
<vectornator:setting key="TimeLapseWatermarkDisabled" value="0"/>
<vectornator:setting key="Units" value="Points"/>
<vectornator:setting key="DynamicGuides" value="0"/>
<vectornator:setting key="IsolateActiveLayer" value="0"/>
<vectornator:setting key="SnapToGrid" value="0"/>
</metadata>
<defs/>
<g id="Untitled" vectornator:layerName="Untitled">
<path d="M239.482+8.4C240.582+11.3+240.282+14.6+238.682+16.8C238.082+17.6+237.782+18.3+238.082+18.3C239.082+18.3+239.282+21.8+238.382+24.1C237.882+25.4+237.582+26.9+237.782+27.7C238.282+29.8+236.182+34.2+235.082+33.3C234.382+32.7+234.382+32.5+235.082+31.4C236.382+29.4+236.182+27.2+234.682+27.6C233.982+27.8+232.182+28.1+230.582+28.3C226.782+28.8+221.982+35.2+223.982+37.2C224.682+37.9+231.182+35.8+232.382+34.4C234.682+31.8+237.582+35.5+235.782+38.8C235.282+39.7+233.082+49.9+233.082+51.2C233.082+51.4+234.082+52+235.182+52.7C242.082+56.3+247.782+61.6+252.582+68.8C257.082+75.5+261.082+79.3+267.482+82.5C279.482+88.7+293.382+97.4+295.082+99.8C296.982+102.5+297.082+102.4+293.282+102C276.382+100.2+246.982+100.4+238.382+102.4C215.882+107.7+202.882+134.8+209.982+161.4C213.882+176.2+214.782+179.8+215.782+186C220.182+212.5+217.282+246.3+206.982+288.1C200.482+314.7+191.482+330.1+184.182+327.1C179.882+325.3+176.382+310.2+176.382+293.7C176.382+287.6+176.182+282.6+175.982+282.6C174.782+282.6+171.182+297.6+169.882+308.4C166.182+338.8+154.182+364.4+135.382+382C121.682+394.8+96.1822+395.6+108.282+382.8C118.282+372.2+130.382+347.6+134.882+328.5C138.882+311.6+139.282+305.7+138.482+275.3C136.682+209.2+144.182+129.9+154.682+103.4C167.482+71.1+190.682+49.3+214.282+47.8C215.882+47.7+216.182+47.4+216.482+46.1C216.982+43.8+218.782+40.4+220.382+38.9C221.182+38.2+221.782+37+221.782+36.2C221.782+34.3+223.482+30.8+225.382+28.6C226.282+27.6+227.182+25.8+227.382+24.7C227.982+21.6+228.782+20.1+230.482+19.2C231.382+18.7+231.982+18+231.982+17.3C231.982+15.9+233.782+12.4+236.282+8.9L238.282+6.1L239.482+8.4M235.182+14.9C233.782+17.8+234.282+18.7+236.182+17C237.682+15.6+238.882+12.7+238.482+11.3C237.882+9.8+237.082+10.7+235.182+14.9M230.582+22.1C228.782+24.7+228.982+26.7+231.182+26.4C235.182+26+237.082+24.1+237.082+20.8L237.082+18.9L234.282+19.8C232.682+20.4+231.082+21.4+230.582+22.1M229.282+38.2C227.582+38.8+225.382+39.3+224.482+39.3C221.682+39.3+216.982+46.2+218.882+47.4C220.082+48.2+224.682+47.5+228.382+46C230.282+45.2+231.982+44.7+232.282+44.9C232.582+45.1+232.782+44.5+232.782+43.7C232.782+42.9+233.282+40.9+233.782+39.3C234.882+36.1+234.782+35+233.282+36.3C232.882+36.8+230.982+37.6+229.282+38.2M228.682+47.9L226.082+49L228.682+49.8C231.682+50.7+231.482+50.8+231.982+48.5C232.382+46.5+232.082+46.4+228.682+47.9M232.082+70.5C230.982+71.1+230.982+71.1+232.782+71.7C235.982+72.7+235.382+76.3+232.082+76.3C229.582+76.3+231.082+77.4+233.982+77.8C236.082+78+236.482+77.9+237.482+76.6C240.482+72.8+236.382+68.2+232.082+70.5M237.582+112.4C237.582+112.5+237.282+114+236.982+115.7C235.582+123.1+239.582+133.7+250.482+151.6C269.482+182.8+278.982+214.4+280.282+250.4C281.682+289.7+270.882+321+247.282+345.5C241.882+351.1+234.882+357.4+236.682+355C237.282+354.2+239.182+351.7+240.982+349.4C283.382+294.7+284.382+212.7+243.482+150.9C231.782+133.2+229.082+119.9+236.082+113.5C236.982+112.7+237.582+112.2+237.582+112.4" fill-rule="evenodd" fill="#ff14b5" opacity="1"/>
</g>
</svg>
